<svg width="249" height="106" viewBox="0 0 249 106" fill="none" xmlns="http://www.w3.org/2000/svg">
<path d="M132.363 18.5535C135.049 18.5535 137.153 19.1478 138.674 20.3363C140.219 21.5249 140.992 23.2127 140.992 25.3996V25.8275H137.497V25.2927C137.497 24.1516 137.034 23.2721 136.107 22.654C135.18 22.036 133.956 21.727 132.434 21.727C130.746 21.727 129.427 22.0122 128.476 22.5827C127.549 23.1295 127.086 23.9258 127.086 24.9718C127.086 25.7562 127.347 26.398 127.87 26.8972C128.417 27.3964 129.082 27.7887 129.867 28.0739C130.675 28.3592 131.78 28.6801 133.183 29.0367C134.99 29.5121 136.452 29.9756 137.569 30.4273C138.686 30.879 139.637 31.5564 140.421 32.4598C141.23 33.3631 141.634 34.5635 141.634 36.0611C141.634 38.7235 140.814 40.6728 139.173 41.9089C137.557 43.1212 135.275 43.7274 132.327 43.7274C129.38 43.7274 127.086 43.1094 125.445 41.8732C123.829 40.6134 123.021 38.7948 123.021 36.4177L123.056 35.7046H126.551L126.515 36.4534C126.515 37.8321 127.026 38.8662 128.048 39.5555C129.094 40.2211 130.532 40.5539 132.363 40.5539C134.146 40.5539 135.548 40.233 136.57 39.5912C137.616 38.9256 138.139 38.0223 138.139 36.8812C138.139 35.9779 137.854 35.2529 137.284 34.7062C136.737 34.1356 136.036 33.6959 135.18 33.3868C134.348 33.0778 133.207 32.7331 131.757 32.3528C129.974 31.8774 128.548 31.4257 127.478 30.9978C126.408 30.5699 125.493 29.9162 124.732 29.0367C123.972 28.1334 123.591 26.9567 123.591 25.5066C123.591 23.1532 124.388 21.406 125.98 20.265C127.573 19.124 129.7 18.5535 132.363 18.5535ZM154.326 25.15H158.569V27.8243H154.326V38.6998C154.326 39.5555 154.492 40.1736 154.825 40.5539C155.158 40.9343 155.669 41.1244 156.358 41.1244C156.976 41.1244 157.713 40.9462 158.569 40.5896V43.0856C157.713 43.5135 156.608 43.7274 155.253 43.7274C153.851 43.7274 152.781 43.3114 152.044 42.4794C151.331 41.6474 150.974 40.3281 150.974 38.5215V27.8243H148.977V25.15H151.081L152.222 19.3379H154.326V25.15ZM181.878 39.8051C181.878 40.233 181.973 40.5539 182.164 40.7679C182.354 40.958 182.592 41.0531 182.877 41.0531C183.4 41.0531 183.935 40.8867 184.481 40.5539V43.0143C183.744 43.4897 182.996 43.7274 182.235 43.7274C180.951 43.7274 180.048 43.4659 179.525 42.943C179.026 42.42 178.752 41.6831 178.705 40.7322C178.063 41.6831 177.231 42.42 176.209 42.943C175.21 43.4659 174.058 43.7274 172.75 43.7274C170.92 43.7274 169.41 43.1926 168.222 42.1228C167.057 41.0294 166.474 39.4604 166.474 37.4161V25.15H169.826V36.8099C169.826 39.6387 171.11 41.0531 173.677 41.0531C174.509 41.0531 175.294 40.8273 176.031 40.3756C176.791 39.924 177.397 39.3178 177.849 38.5571C178.301 37.7727 178.527 36.9169 178.527 35.9898V25.15H181.878V39.8051ZM207.486 43.3708H204.99C204.824 42.6102 204.669 41.7782 204.527 40.8748C203.172 42.7766 201.294 43.7274 198.893 43.7274C196.611 43.7274 194.804 42.8835 193.473 41.1958C192.165 39.508 191.512 37.1903 191.512 34.2426V33.8504C191.512 31.0691 192.153 28.8703 193.437 27.2538C194.745 25.6136 196.563 24.7935 198.893 24.7935C201.151 24.7935 202.898 25.6849 204.134 27.4678V17.6977H207.486V43.3708ZM199.499 27.4678C197.906 27.4678 196.729 28.0264 195.969 29.1436C195.232 30.2371 194.863 31.9487 194.863 34.2783C194.863 36.6079 195.244 38.3194 196.004 39.4129C196.765 40.5064 197.93 41.0531 199.499 41.0531C202.613 41.0531 204.17 38.7948 204.17 34.2783C204.17 31.9487 203.778 30.2371 202.993 29.1436C202.209 28.0264 201.044 27.4678 199.499 27.4678ZM220.751 17.6977V20.7999H217.256V17.6977H220.751ZM220.679 25.15V43.3708H217.328V25.15H220.679ZM237.787 24.7935C240.33 24.7935 242.363 25.5779 243.884 27.1468C245.405 28.7158 246.166 30.8671 246.166 33.6008V34.9201C246.166 37.6538 245.417 39.8051 243.92 41.374C242.422 42.943 240.378 43.7274 237.787 43.7274C235.195 43.7274 233.151 42.943 231.654 41.374C230.156 39.8051 229.407 37.6538 229.407 34.9201V33.6008C229.407 30.8671 230.168 28.7158 231.689 27.1468C233.211 25.5779 235.243 24.7935 237.787 24.7935ZM237.787 27.4678C236.194 27.4678 234.958 28.0145 234.078 29.108C233.199 30.2015 232.759 31.806 232.759 33.9217V34.5992C232.759 36.6673 233.187 38.26 234.043 39.3772C234.922 40.4945 236.17 41.0531 237.787 41.0531C239.355 41.0531 240.58 40.5064 241.459 39.4129C242.363 38.2956 242.814 36.6911 242.814 34.5992V33.9217C242.814 31.8536 242.374 30.2609 241.495 29.1436C240.639 28.0264 239.403 27.4678 237.787 27.4678ZM132.363 60.5535C135.049 60.5535 137.153 61.1478 138.674 62.3363C140.219 63.5249 140.992 65.2127 140.992 67.3996V67.8275H137.497V67.2927C137.497 66.1516 137.034 65.2721 136.107 64.654C135.18 64.036 133.956 63.727 132.434 63.727C130.746 63.727 129.427 64.0122 128.476 64.5827C127.549 65.1295 127.086 65.9258 127.086 66.9718C127.086 67.7562 127.347 68.398 127.87 68.8972C128.417 69.3964 129.082 69.7887 129.867 70.0739C130.675 70.3592 131.78 70.6801 133.183 71.0367C134.99 71.5121 136.452 71.9756 137.569 72.4273C138.686 72.879 139.637 73.5564 140.421 74.4598C141.23 75.3631 141.634 76.5635 141.634 78.0611C141.634 80.7235 140.814 82.6728 139.173 83.9089C137.557 85.1212 135.275 85.7274 132.327 85.7274C129.38 85.7274 127.086 85.1094 125.445 83.8732C123.829 82.6134 123.021 80.7948 123.021 78.4177L123.056 77.7046H126.551L126.515 78.4534C126.515 79.8321 127.026 80.8662 128.048 81.5555C129.094 82.2211 130.532 82.5539 132.363 82.5539C134.146 82.5539 135.548 82.233 136.57 81.5912C137.616 80.9256 138.139 80.0223 138.139 78.8812C138.139 77.9779 137.854 77.2529 137.284 76.7062C136.737 76.1356 136.036 75.6959 135.18 75.3868C134.348 75.0778 133.207 74.7331 131.757 74.3528C129.974 73.8774 128.548 73.4257 127.478 72.9978C126.408 72.5699 125.493 71.9162 124.732 71.0367C123.972 70.1334 123.591 68.9567 123.591 67.5066C123.591 65.1532 124.388 63.406 125.98 62.265C127.573 61.124 129.7 60.5535 132.363 60.5535ZM157.571 66.7935C159.972 66.7935 161.755 67.2689 162.919 68.2198C164.108 69.1706 164.702 70.5494 164.702 72.356V81.8051C164.702 82.233 164.797 82.5539 164.987 82.7679C165.178 82.958 165.415 83.0531 165.701 83.0531C166.247 83.0531 166.794 82.8867 167.341 82.5539V85.0143C166.533 85.4897 165.617 85.7274 164.595 85.7274C163.573 85.7274 162.812 85.4422 162.313 84.8716C161.814 84.2774 161.541 83.4691 161.493 82.447C160.019 84.6339 157.892 85.7274 155.11 85.7274C153.114 85.7274 151.616 85.2995 150.618 84.4438C149.643 83.5642 149.156 82.1855 149.156 80.3075C149.156 78.8337 149.536 77.6808 150.297 76.8488C151.057 75.993 152.317 75.375 154.076 74.9946C155.835 74.6143 158.26 74.4241 161.35 74.4241V72.7482C161.35 71.5359 160.994 70.692 160.281 70.2166C159.568 69.7174 158.534 69.4678 157.179 69.4678C155.895 69.4678 154.896 69.7174 154.183 70.2166C153.47 70.7158 153.114 71.417 153.114 72.3203V72.7482H149.833C149.786 72.4154 149.762 72.0232 149.762 71.5715C149.762 70.7395 150.095 69.9551 150.76 69.2182C151.426 68.4812 152.329 67.8988 153.47 67.471C154.611 67.0193 155.871 66.7935 157.25 66.7935H157.571ZM161.35 77.0271C158.854 77.0271 156.965 77.1578 155.681 77.4193C154.421 77.657 153.577 78.0255 153.149 78.5247C152.721 79.0239 152.507 79.7132 152.507 80.5928C152.507 82.233 153.755 83.0531 156.251 83.0531C157.131 83.0531 157.963 82.8392 158.747 82.4113C159.532 81.9596 160.162 81.3297 160.637 80.5215C161.113 79.7132 161.35 78.7862 161.35 77.7402V77.0271ZM179.106 67.15H183.35V69.8243H179.106V80.6998C179.106 81.5555 179.273 82.1736 179.606 82.5539C179.938 82.9343 180.449 83.1244 181.139 83.1244C181.757 83.1244 182.494 82.9462 183.35 82.5896V85.0856C182.494 85.5135 181.388 85.7274 180.033 85.7274C178.631 85.7274 177.561 85.3114 176.824 84.4794C176.111 83.6474 175.755 82.3281 175.755 80.5215V69.8243H173.758V67.15H175.862L177.003 61.3379H179.106V67.15ZM198.707 66.7935C201.251 66.7935 203.283 67.5779 204.805 69.1468C206.326 70.7158 207.087 72.8671 207.087 75.6008V76.9201C207.087 79.6538 206.338 81.8051 204.84 83.374C203.343 84.943 201.298 85.7274 198.707 85.7274C196.116 85.7274 194.072 84.943 192.574 83.374C191.077 81.8051 190.328 79.6538 190.328 76.9201V75.6008C190.328 72.8671 191.088 70.7158 192.61 69.1468C194.131 67.5779 196.164 66.7935 198.707 66.7935ZM198.707 69.4678C197.114 69.4678 195.878 70.0145 194.999 71.108C194.119 72.2015 193.679 73.806 193.679 75.9217V76.5992C193.679 78.6673 194.107 80.26 194.963 81.3772C195.843 82.4945 197.091 83.0531 198.707 83.0531C200.276 83.0531 201.5 82.5064 202.38 81.4129C203.283 80.2956 203.735 78.6911 203.735 76.5992V75.9217C203.735 73.8536 203.295 72.2609 202.415 71.1436C201.56 70.0264 200.324 69.4678 198.707 69.4678ZM224.032 66.7935C225.719 66.7935 227.039 67.3402 227.989 68.4337C228.94 69.5034 229.416 70.8584 229.416 72.4986L229.309 73.8536H226.349V73.0691C226.349 72.356 226.171 71.726 225.814 71.1793C225.458 70.6326 225.006 70.2166 224.459 69.9313C223.913 69.6223 223.366 69.4678 222.819 69.4678C221.678 69.4678 220.787 69.9194 220.145 70.8227C219.503 71.726 219.182 72.9503 219.182 74.4954V85.3708H215.83V67.15H218.219L218.719 69.86C218.861 69.3846 219.182 68.9091 219.681 68.4337C220.181 67.9583 220.799 67.566 221.536 67.257C222.296 66.948 223.128 66.7935 224.032 66.7935ZM240.656 59.6977V62.7999H237.162V59.6977H240.656ZM240.585 67.15V85.3708H237.233V67.15H240.585Z" fill="#FBD757"/>
<path d="M46 81L46 28" stroke="#FBD757" stroke-width="1.5" stroke-linecap="round"/>
<path d="M46 54L46 2" stroke="#FBD757" stroke-width="2.5" stroke-linecap="round"/>
<path d="M46 53L46 105" stroke="#FBD757" stroke-linecap="round"/>
<path d="M38 49L38 6.8" stroke="#FBD757" stroke-width="2.5" stroke-linecap="round"/>
<path d="M30 45L30 11.5" stroke="#FBD757" stroke-width="2.5" stroke-linecap="round"/>
<path d="M30 62L30 95.5" stroke="#FBD757" stroke-linecap="round"/>
<path d="M30 38L30 71.5" stroke="#FBD757" stroke-width="1.5" stroke-linecap="round"/>
<path d="M22 40L22 15.8" stroke="#FBD757" stroke-width="2.5" stroke-linecap="round"/>
<path d="M22 67L22 91.2" stroke="#FBD757" stroke-linecap="round"/>
<path d="M22 37L22 67" stroke="#FBD757" stroke-width="1.5" stroke-linecap="round"/>
<path d="M14 35L14 20.3" stroke="#FBD757" stroke-width="2.5" stroke-linecap="round"/>
<path d="M14 56L14 87" stroke="#FBD757" stroke-linecap="round"/>
<path d="M14 32L14 63" stroke="#FBD757" stroke-width="1.5" stroke-linecap="round"/>
<path d="M6 31L6 24.8" stroke="#FBD757" stroke-width="2.5" stroke-linecap="round"/>
<path d="M6 54L6 82" stroke="#FBD757" stroke-linecap="round"/>
<path d="M6 30L6 58" stroke="#FBD757" stroke-width="1.5" stroke-linecap="round"/>
<path d="M42 78L42 31" stroke="#FBD757" stroke-width="1.5" stroke-linecap="round"/>
<path d="M42 51L42 4.5" stroke="#FBD757" stroke-width="2.5" stroke-linecap="round"/>
<path d="M42 56L42 102.5" stroke="#FBD757" stroke-linecap="round"/>
<path d="M34 47L34 9" stroke="#FBD757" stroke-width="2.5" stroke-linecap="round"/>
<path d="M34 60L34 98" stroke="#FBD757" stroke-linecap="round"/>
<path d="M34 36L34 74" stroke="#FBD757" stroke-width="1.5" stroke-linecap="round"/>
<path d="M38 63L38 101" stroke="#FBD757" stroke-linecap="round"/>
<path d="M38 39L38 77" stroke="#FBD757" stroke-width="1.5" stroke-linecap="round"/>
<path d="M26 42L26 13.5" stroke="#FBD757" stroke-width="2.5" stroke-linecap="round"/>
<path d="M26 65L26 93.5" stroke="#FBD757" stroke-linecap="round"/>
<path d="M26 41L26 69.5" stroke="#FBD757" stroke-width="1.5" stroke-linecap="round"/>
<path d="M18 37L18 18" stroke="#FBD757" stroke-width="2.5" stroke-linecap="round"/>
<path d="M18 49L18 89" stroke="#FBD757" stroke-linecap="round"/>
<path d="M18 25L18 65" stroke="#FBD757" stroke-width="1.5" stroke-linecap="round"/>
<path d="M10 33L10 22.7" stroke="#FBD757" stroke-width="2.5" stroke-linecap="round"/>
<path d="M10 53L10 84" stroke="#FBD757" stroke-linecap="round"/>
<path d="M10 29L10 60" stroke="#FBD757" stroke-width="1.5" stroke-linecap="round"/>
<path d="M2 29L2 27" stroke="#FBD757" stroke-width="2.5" stroke-linecap="round"/>
<path d="M2 53L2 80" stroke="#FBD757" stroke-linecap="round"/>
<path d="M2 29L2 56" stroke="#FBD757" stroke-width="1.5" stroke-linecap="round"/>
<path d="M46 2L46 54" stroke="#FBD757" stroke-width="2.5" stroke-linecap="round"/>
<path d="M38 7L38 49.2" stroke="#FBD757" stroke-width="2.5" stroke-linecap="round"/>
<path d="M30 11L30 44.5" stroke="#FBD757" stroke-width="2.5" stroke-linecap="round"/>
<path d="M22 16L22 40.2" stroke="#FBD757" stroke-width="2.5" stroke-linecap="round"/>
<path d="M14 21L14 35.7" stroke="#FBD757" stroke-width="2.5" stroke-linecap="round"/>
<path d="M6 25L6 31.2" stroke="#FBD757" stroke-width="2.5" stroke-linecap="round"/>
<path d="M42 5L42 51.5" stroke="#FBD757" stroke-width="2.5" stroke-linecap="round"/>
<path d="M34 9L34 47" stroke="#FBD757" stroke-width="2.5" stroke-linecap="round"/>
<path d="M26 14L26 42.5" stroke="#FBD757" stroke-width="2.5" stroke-linecap="round"/>
<path d="M18 19L18 38" stroke="#FBD757" stroke-width="2.5" stroke-linecap="round"/>
<path d="M10 23L10 33.3" stroke="#FBD757" stroke-width="2.5" stroke-linecap="round"/>
<path d="M54 49.1001L54 6.9001" stroke="#FBD757" stroke-width="2.5" stroke-linecap="round"/>
<path d="M62 45.1001L62 11.6001" stroke="#FBD757" stroke-width="2.5" stroke-linecap="round"/>
<path d="M62 62.1001L62 95.6001" stroke="#FBD757" stroke-linecap="round"/>
<path d="M62 38.1001L62 71.6001" stroke="#FBD757" stroke-width="1.5" stroke-linecap="round"/>
<path d="M70 40.1001L70 15.9001" stroke="#FBD757" stroke-width="2.5" stroke-linecap="round"/>
<path d="M70 67.1001L70 91.3001" stroke="#FBD757" stroke-linecap="round"/>
<path d="M70 37.1001L70 67.1001" stroke="#FBD757" stroke-width="1.5" stroke-linecap="round"/>
<path d="M78 35.1001L78 20.4001" stroke="#FBD757" stroke-width="2.5" stroke-linecap="round"/>
<path d="M78 56.1001L78 87.1001" stroke="#FBD757" stroke-linecap="round"/>
<path d="M78 32.1001L78 63.1001" stroke="#FBD757" stroke-width="1.5" stroke-linecap="round"/>
<path d="M86 31.1001L86 24.9001" stroke="#FBD757" stroke-width="2.5" stroke-linecap="round"/>
<path d="M86 54.1001L86 82.1001" stroke="#FBD757" stroke-linecap="round"/>
<path d="M86 30.1001L86 58.1001" stroke="#FBD757" stroke-width="1.5" stroke-linecap="round"/>
<path d="M50 78.1001L50 31.1001" stroke="#FBD757" stroke-width="1.5" stroke-linecap="round"/>
<path d="M50 51.1001L50 4.6001" stroke="#FBD757" stroke-width="2.5" stroke-linecap="round"/>
<path d="M50 56.1001L50 102.6" stroke="#FBD757" stroke-linecap="round"/>
<path d="M58 47.1001L58 9.1001" stroke="#FBD757" stroke-width="2.5" stroke-linecap="round"/>
<path d="M58 60.1001L58 98.1001" stroke="#FBD757" stroke-linecap="round"/>
<path d="M58 36.1001L58 74.1001" stroke="#FBD757" stroke-width="1.5" stroke-linecap="round"/>
<path d="M54 63.1001L54 101.1" stroke="#FBD757" stroke-linecap="round"/>
<path d="M54 39.1001L54 77.1001" stroke="#FBD757" stroke-width="1.5" stroke-linecap="round"/>
<path d="M66 42.1001L66 13.6001" stroke="#FBD757" stroke-width="2.5" stroke-linecap="round"/>
<path d="M66 65.1001L66 93.6001" stroke="#FBD757" stroke-linecap="round"/>
<path d="M66 41.1001L66 69.6001" stroke="#FBD757" stroke-width="1.5" stroke-linecap="round"/>
<path d="M74 37.1001L74 18.1001" stroke="#FBD757" stroke-width="2.5" stroke-linecap="round"/>
<path d="M74 49.1001L74 89.1001" stroke="#FBD757" stroke-linecap="round"/>
<path d="M74 25.1001L74 65.1001" stroke="#FBD757" stroke-width="1.5" stroke-linecap="round"/>
<path d="M82 33.1001L82 22.8001" stroke="#FBD757" stroke-width="2.5" stroke-linecap="round"/>
<path d="M82 53.1001L82 84.1001" stroke="#FBD757" stroke-linecap="round"/>
<path d="M82 29.1001L82 60.1001" stroke="#FBD757" stroke-width="1.5" stroke-linecap="round"/>
<path d="M90 29.1001L90 27.1001" stroke="#FBD757" stroke-width="2.5" stroke-linecap="round"/>
<path d="M90 53.1001L90 80.1001" stroke="#FBD757" stroke-linecap="round"/>
<path d="M90 29.1001L90 56.1001" stroke="#FBD757" stroke-width="1.5" stroke-linecap="round"/>
<path d="M54 7.1001L54 49.3001" stroke="#FBD757" stroke-width="2.5" stroke-linecap="round"/>
<path d="M62 11.1001L62 44.6001" stroke="#FBD757" stroke-width="2.5" stroke-linecap="round"/>
<path d="M70 16.1001L70 40.3001" stroke="#FBD757" stroke-width="2.5" stroke-linecap="round"/>
<path d="M78 21.1001L78 35.8001" stroke="#FBD757" stroke-width="2.5" stroke-linecap="round"/>
<path d="M86 25.1001L86 31.3001" stroke="#FBD757" stroke-width="2.5" stroke-linecap="round"/>
<path d="M50 5.1001L50 51.6001" stroke="#FBD757" stroke-width="2.5" stroke-linecap="round"/>
<path d="M58 9.1001L58 47.1001" stroke="#FBD757" stroke-width="2.5" stroke-linecap="round"/>
<path d="M66 14.1001L66 42.6001" stroke="#FBD757" stroke-width="2.5" stroke-linecap="round"/>
<path d="M74 19.1001L74 38.1001" stroke="#FBD757" stroke-width="2.5" stroke-linecap="round"/>
<path d="M82 23.1001L82 33.4001" stroke="#FBD757" stroke-width="2.5" stroke-linecap="round"/>
<circle cx="34" cy="40" r="2" fill="#FCE698"/>
<circle cx="58" cy="40" r="2" fill="#FCE698"/>
<circle cx="78" cy="34" r="2" fill="#FCE698"/>
<circle cx="14" cy="34" r="2" fill="#FCE698"/>
<circle cx="34" cy="73.2002" r="2" fill="#FCE698"/>
<circle cx="58" cy="73.2002" r="2" fill="#FCE698"/>
<circle cx="78" cy="78" r="2" fill="#FCE698"/>
<circle cx="14" cy="78" r="2" fill="#FCE698"/>
<circle cx="34" cy="56.6001" r="2" fill="#FCE698"/>
<circle cx="34" cy="20.6001" r="2" fill="#FCE698"/>
<circle cx="58" cy="56.6001" r="2" fill="#FCE698"/>
<circle cx="78" cy="56" r="2" fill="#FCE698"/>
<circle cx="14" cy="56" r="2" fill="#FCE698"/>
<circle cx="58" cy="20.6001" r="2" fill="#FCE698"/>
<circle cx="34" cy="89.8003" r="2" fill="#FCE698"/>
<circle cx="58" cy="89.8003" r="2" fill="#FCE698"/>
</svg>
