<svg width="260" height="110" viewBox="0 0 260 110" fill="none" xmlns="http://www.w3.org/2000/svg">
<g clip-path="url(#clip0_24_116)">
<path d="M124.804 45.4279C122.617 45.4279 120.763 45.0594 119.242 44.3225C117.72 43.5618 116.425 42.5872 115.355 41.3986L118.921 37.7973C120.608 39.699 122.688 40.6498 125.161 40.6498C126.492 40.6498 127.478 40.3765 128.12 39.8297C128.762 39.283 129.083 38.5579 129.083 37.6546C129.083 36.9653 128.893 36.3947 128.512 35.9431C128.132 35.4677 127.36 35.1467 126.195 34.9803L123.734 34.6594C121.096 34.3266 119.158 33.5303 117.922 32.2704C116.71 31.0105 116.104 29.3346 116.104 27.2427C116.104 26.1255 116.318 25.1033 116.746 24.1762C117.173 23.2491 117.78 22.4528 118.564 21.7872C119.372 21.1216 120.347 20.6105 121.488 20.2539C122.653 19.8736 123.972 19.6834 125.446 19.6834C127.324 19.6834 128.976 19.9806 130.402 20.5749C131.829 21.1691 133.053 22.0368 134.075 23.1778L130.474 26.8149C129.879 26.1255 129.154 25.5669 128.299 25.139C127.467 24.6873 126.409 24.4615 125.125 24.4615C123.913 24.4615 123.009 24.6754 122.415 25.1033C121.821 25.5312 121.524 26.1255 121.524 26.8862C121.524 27.7419 121.749 28.36 122.201 28.7403C122.677 29.1207 123.437 29.3941 124.483 29.5605L126.944 29.9527C129.511 30.3568 131.413 31.1531 132.649 32.3417C133.885 33.5065 134.503 35.1705 134.503 37.3337C134.503 38.5223 134.289 39.6158 133.861 40.6142C133.433 41.6126 132.803 42.4683 131.971 43.1815C131.163 43.8946 130.153 44.4533 128.94 44.8574C127.728 45.2377 126.349 45.4279 124.804 45.4279ZM148.664 45C146.833 45 145.443 44.5365 144.492 43.6094C143.565 42.6823 143.101 41.3273 143.101 39.5445V30.3806H140.463V26.28H141.782C142.495 26.28 142.982 26.1136 143.244 25.7808C143.505 25.4242 143.636 24.925 143.636 24.2832V21.2167H148.379V26.28H152.087V30.3806H148.379V40.8994H151.802V45H148.664ZM170.372 41.8622H170.194C170.028 42.3376 169.802 42.7893 169.517 43.2171C169.255 43.645 168.91 44.0254 168.482 44.3582C168.055 44.691 167.543 44.9525 166.949 45.1426C166.379 45.3328 165.713 45.4279 164.952 45.4279C163.027 45.4279 161.565 44.7979 160.567 43.5381C159.592 42.2544 159.105 40.424 159.105 38.0469V26.28H164.382V37.5833C164.382 38.7243 164.584 39.6039 164.988 40.2219C165.392 40.84 166.082 41.149 167.056 41.149C167.46 41.149 167.864 41.0896 168.269 40.9707C168.673 40.8519 169.029 40.6855 169.338 40.4715C169.647 40.2338 169.897 39.9486 170.087 39.6158C170.277 39.283 170.372 38.8907 170.372 38.4391V26.28H175.65V45H170.372V41.8622ZM195.607 41.8622H195.429C195.286 42.3614 195.06 42.8368 194.751 43.2885C194.442 43.7163 194.062 44.0967 193.61 44.4295C193.182 44.7385 192.683 44.9762 192.113 45.1426C191.566 45.3328 190.995 45.4279 190.401 45.4279C188.024 45.4279 186.229 44.5959 185.017 42.9319C183.804 41.2441 183.198 38.8075 183.198 35.6222C183.198 32.4368 183.804 30.0121 185.017 28.3481C186.229 26.6841 188.024 25.8521 190.401 25.8521C191.613 25.8521 192.683 26.1849 193.61 26.8505C194.561 27.5161 195.167 28.3719 195.429 29.4178H195.607V18.6137H200.884V45H195.607V41.8622ZM192.148 41.149C193.147 41.149 193.967 40.9113 194.609 40.4359C195.274 39.9367 195.607 39.2592 195.607 38.4034V32.8766C195.607 32.0208 195.274 31.3552 194.609 30.8798C193.967 30.3806 193.147 30.131 192.148 30.131C191.15 30.131 190.318 30.4875 189.652 31.2007C189.01 31.8901 188.689 32.829 188.689 34.0176V37.2624C188.689 38.451 189.01 39.4018 189.652 40.115C190.318 40.8043 191.15 41.149 192.148 41.149ZM212.023 24.2832C210.954 24.2832 210.169 24.0455 209.67 23.5701C209.195 23.0709 208.957 22.4409 208.957 21.6802V20.8958C208.957 20.1351 209.195 19.517 209.67 19.0416C210.169 18.5424 210.954 18.2928 212.023 18.2928C213.093 18.2928 213.866 18.5424 214.341 19.0416C214.84 19.517 215.09 20.1351 215.09 20.8958V21.6802C215.09 22.4409 214.84 23.0709 214.341 23.5701C213.866 24.0455 213.093 24.2832 212.023 24.2832ZM209.385 26.28H214.662V45H209.385V26.28ZM230.748 45.4279C229.369 45.4279 228.133 45.2021 227.04 44.7504C225.97 44.2987 225.055 43.645 224.294 42.7893C223.557 41.9335 222.987 40.8994 222.583 39.6871C222.179 38.4747 221.977 37.1198 221.977 35.6222C221.977 34.1246 222.179 32.7696 222.583 31.5573C222.987 30.3449 223.557 29.3227 224.294 28.4907C225.055 27.635 225.97 26.9813 227.04 26.5296C228.133 26.0779 229.369 25.8521 230.748 25.8521C232.127 25.8521 233.351 26.0779 234.421 26.5296C235.514 26.9813 236.43 27.635 237.166 28.4907C237.927 29.3227 238.51 30.3449 238.914 31.5573C239.318 32.7696 239.52 34.1246 239.52 35.6222C239.52 37.1198 239.318 38.4747 238.914 39.6871C238.51 40.8994 237.927 41.9335 237.166 42.7893C236.43 43.645 235.514 44.2987 234.421 44.7504C233.351 45.2021 232.127 45.4279 230.748 45.4279ZM230.748 41.256C231.794 41.256 232.602 40.9351 233.173 40.2933C233.743 39.6514 234.029 38.7362 234.029 37.5477V33.7323C234.029 32.5438 233.743 31.6286 233.173 30.9867C232.602 30.3449 231.794 30.024 230.748 30.024C229.702 30.024 228.894 30.3449 228.324 30.9867C227.753 31.6286 227.468 32.5438 227.468 33.7323V37.5477C227.468 38.7362 227.753 39.6514 228.324 40.2933C228.894 40.9351 229.702 41.256 230.748 41.256ZM124.804 91.4279C122.617 91.4279 120.763 91.0594 119.242 90.3225C117.72 89.5618 116.425 88.5872 115.355 87.3986L118.921 83.7973C120.608 85.699 122.688 86.6498 125.161 86.6498C126.492 86.6498 127.478 86.3765 128.12 85.8297C128.762 85.283 129.083 84.5579 129.083 83.6546C129.083 82.9653 128.893 82.3947 128.512 81.9431C128.132 81.4677 127.36 81.1467 126.195 80.9803L123.734 80.6594C121.096 80.3266 119.158 79.5303 117.922 78.2704C116.71 77.0105 116.104 75.3346 116.104 73.2427C116.104 72.1255 116.318 71.1033 116.746 70.1762C117.173 69.2491 117.78 68.4528 118.564 67.7872C119.372 67.1216 120.347 66.6105 121.488 66.2539C122.653 65.8736 123.972 65.6834 125.446 65.6834C127.324 65.6834 128.976 65.9806 130.402 66.5749C131.829 67.1691 133.053 68.0368 134.075 69.1778L130.474 72.8149C129.879 72.1255 129.154 71.5669 128.299 71.139C127.467 70.6873 126.409 70.4615 125.125 70.4615C123.913 70.4615 123.009 70.6754 122.415 71.1033C121.821 71.5312 121.524 72.1255 121.524 72.8862C121.524 73.7419 121.749 74.36 122.201 74.7403C122.677 75.1207 123.437 75.3941 124.483 75.5605L126.944 75.9527C129.511 76.3568 131.413 77.1531 132.649 78.3417C133.885 79.5065 134.503 81.1705 134.503 83.3337C134.503 84.5223 134.289 85.6158 133.861 86.6142C133.433 87.6126 132.803 88.4683 131.971 89.1815C131.163 89.8946 130.153 90.4533 128.94 90.8574C127.728 91.2377 126.349 91.4279 124.804 91.4279ZM156.112 91C155.161 91 154.365 90.7029 153.723 90.1086C153.105 89.5143 152.713 88.7179 152.546 87.7195H152.332C152.047 88.9319 151.417 89.859 150.442 90.5008C149.468 91.1189 148.267 91.4279 146.841 91.4279C144.963 91.4279 143.525 90.9287 142.527 89.9303C141.528 88.9319 141.029 87.6126 141.029 85.9723C141.029 83.9993 141.742 82.5374 143.168 81.5865C144.618 80.6119 146.58 80.1246 149.052 80.1246H152.011V78.9479C152.011 78.0446 151.774 77.3314 151.298 76.8085C150.823 76.2617 150.026 75.9883 148.909 75.9883C147.863 75.9883 147.031 76.2142 146.413 76.6658C145.795 77.1175 145.284 77.6286 144.88 78.1991L141.742 75.4178C142.503 74.3006 143.454 73.4329 144.595 72.8149C145.759 72.173 147.328 71.8521 149.301 71.8521C151.964 71.8521 153.961 72.4345 155.292 73.5993C156.623 74.7641 157.289 76.4638 157.289 78.6983V86.8994H159.036V91H156.112ZM148.802 87.7552C149.682 87.7552 150.431 87.565 151.049 87.1847C151.69 86.8043 152.011 86.1863 152.011 85.3305V83.1198H149.444C147.376 83.1198 146.342 83.821 146.342 85.2235V85.7584C146.342 86.4478 146.556 86.9589 146.984 87.2917C147.412 87.6007 148.018 87.7552 148.802 87.7552ZM172.496 91C170.665 91 169.275 90.5365 168.324 89.6094C167.397 88.6823 166.933 87.3273 166.933 85.5445V76.3806H164.294V72.28H165.614C166.327 72.28 166.814 72.1136 167.076 71.7808C167.337 71.4242 167.468 70.925 167.468 70.2832V67.2167H172.21V72.28H175.919V76.3806H172.21V86.8994H175.633V91H172.496ZM190.606 91.4279C189.227 91.4279 187.991 91.2021 186.898 90.7504C185.828 90.2987 184.913 89.645 184.152 88.7893C183.415 87.9335 182.845 86.8994 182.441 85.6871C182.036 84.4747 181.834 83.1198 181.834 81.6222C181.834 80.1246 182.036 78.7696 182.441 77.5573C182.845 76.3449 183.415 75.3227 184.152 74.4907C184.913 73.635 185.828 72.9813 186.898 72.5296C187.991 72.0779 189.227 71.8521 190.606 71.8521C191.985 71.8521 193.209 72.0779 194.279 72.5296C195.372 72.9813 196.287 73.635 197.024 74.4907C197.785 75.3227 198.367 76.3449 198.772 77.5573C199.176 78.7696 199.378 80.1246 199.378 81.6222C199.378 83.1198 199.176 84.4747 198.772 85.6871C198.367 86.8994 197.785 87.9335 197.024 88.7893C196.287 89.645 195.372 90.2987 194.279 90.7504C193.209 91.2021 191.985 91.4279 190.606 91.4279ZM190.606 87.256C191.652 87.256 192.46 86.9351 193.031 86.2933C193.601 85.6514 193.886 84.7362 193.886 83.5477V79.7323C193.886 78.5438 193.601 77.6286 193.031 76.9867C192.46 76.3449 191.652 76.024 190.606 76.024C189.56 76.024 188.752 76.3449 188.181 76.9867C187.611 77.6286 187.326 78.5438 187.326 79.7323V83.5477C187.326 84.7362 187.611 85.6514 188.181 86.2933C188.752 86.9351 189.56 87.256 190.606 87.256ZM206.704 91V72.28H211.981V76.3449H212.159C212.254 75.8219 212.421 75.3227 212.658 74.8473C212.896 74.3481 213.205 73.9083 213.585 73.528C213.99 73.1477 214.465 72.8505 215.012 72.6366C215.558 72.3989 216.2 72.28 216.937 72.28H217.864V77.2007H216.545C215 77.2007 213.847 77.4027 213.086 77.8069C212.349 78.211 211.981 78.9598 211.981 80.0533V91H206.704ZM227.324 70.2832C226.254 70.2832 225.47 70.0455 224.971 69.5701C224.495 69.0709 224.257 68.4409 224.257 67.6802V66.8958C224.257 66.1351 224.495 65.517 224.971 65.0416C225.47 64.5424 226.254 64.2928 227.324 64.2928C228.394 64.2928 229.166 64.5424 229.642 65.0416C230.141 65.517 230.39 66.1351 230.39 66.8958V67.6802C230.39 68.4409 230.141 69.0709 229.642 69.5701C229.166 70.0455 228.394 70.2832 227.324 70.2832ZM224.685 72.28H229.963V91H224.685V72.28Z" fill="white"/>
<path d="M49 55L49 3" stroke="white" stroke-width="2.5" stroke-linecap="round"/>
<path d="M49 54L49 106" stroke="white" stroke-linecap="round"/>
<path d="M41 50L41 7.8" stroke="white" stroke-width="2.5" stroke-linecap="round"/>
<path d="M33 46L33 12.5" stroke="white" stroke-width="2.5" stroke-linecap="round"/>
<path d="M33 63L33 96.5" stroke="white" stroke-linecap="round"/>
<path d="M33 39L33 72.5" stroke="white" stroke-width="1.5" stroke-linecap="round"/>
<path d="M25 41L25 16.8" stroke="white" stroke-width="2.5" stroke-linecap="round"/>
<path d="M25 68L25 92.2" stroke="white" stroke-linecap="round"/>
<path d="M25 38L25 68" stroke="white" stroke-width="1.5" stroke-linecap="round"/>
<path d="M17 36L17 21.3" stroke="white" stroke-width="2.5" stroke-linecap="round"/>
<path d="M17 57L17 88" stroke="white" stroke-linecap="round"/>
<path d="M17 33L17 64" stroke="white" stroke-width="1.5" stroke-linecap="round"/>
<path d="M9 32L9 25.8" stroke="white" stroke-width="2.5" stroke-linecap="round"/>
<path d="M9 55L9 83" stroke="white" stroke-linecap="round"/>
<path d="M9 31L9 59" stroke="white" stroke-width="1.5" stroke-linecap="round"/>
<path d="M45 79L45 32" stroke="white" stroke-width="1.5" stroke-linecap="round"/>
<path d="M45 52L45 5.5" stroke="white" stroke-width="2.5" stroke-linecap="round"/>
<path d="M45 57L45 103.5" stroke="white" stroke-linecap="round"/>
<path d="M37 48L37 10" stroke="white" stroke-width="2.5" stroke-linecap="round"/>
<path d="M37 61L37 99" stroke="white" stroke-linecap="round"/>
<path d="M37 37L37 75" stroke="white" stroke-width="1.5" stroke-linecap="round"/>
<path d="M41 64L41 102" stroke="white" stroke-linecap="round"/>
<path d="M41 40L41 78" stroke="white" stroke-width="1.5" stroke-linecap="round"/>
<path d="M29 43L29 14.5" stroke="white" stroke-width="2.5" stroke-linecap="round"/>
<path d="M29 66L29 94.5" stroke="white" stroke-linecap="round"/>
<path d="M29 42L29 70.5" stroke="white" stroke-width="1.5" stroke-linecap="round"/>
<path d="M21 38L21 19" stroke="white" stroke-width="2.5" stroke-linecap="round"/>
<path d="M21 50L21 90" stroke="white" stroke-linecap="round"/>
<path d="M21 26L21 66" stroke="white" stroke-width="1.5" stroke-linecap="round"/>
<path d="M13 34L13 23.7" stroke="white" stroke-width="2.5" stroke-linecap="round"/>
<path d="M13 54L13 85" stroke="white" stroke-linecap="round"/>
<path d="M13 30L13 61" stroke="white" stroke-width="1.5" stroke-linecap="round"/>
<path d="M5 30L5 28" stroke="white" stroke-width="2.5" stroke-linecap="round"/>
<path d="M5 54L5 81" stroke="white" stroke-linecap="round"/>
<path d="M5 30L5 57" stroke="white" stroke-width="1.5" stroke-linecap="round"/>
<path d="M49 3L49 55" stroke="white" stroke-width="2.5" stroke-linecap="round"/>
<path d="M41 8L41 50.2" stroke="white" stroke-width="2.5" stroke-linecap="round"/>
<path d="M33 12L33 45.5" stroke="white" stroke-width="2.5" stroke-linecap="round"/>
<path d="M25 17L25 41.2" stroke="white" stroke-width="2.5" stroke-linecap="round"/>
<path d="M17 22L17 36.7" stroke="white" stroke-width="2.5" stroke-linecap="round"/>
<path d="M9 26L9 32.2" stroke="white" stroke-width="2.5" stroke-linecap="round"/>
<path d="M45 6L45 52.5" stroke="white" stroke-width="2.5" stroke-linecap="round"/>
<path d="M37 10L37 48" stroke="white" stroke-width="2.5" stroke-linecap="round"/>
<path d="M29 15L29 43.5" stroke="white" stroke-width="2.5" stroke-linecap="round"/>
<path d="M21 20L21 39" stroke="white" stroke-width="2.5" stroke-linecap="round"/>
<path d="M13 24L13 34.3" stroke="white" stroke-width="2.5" stroke-linecap="round"/>
<path d="M57 50.1001L57 7.9001" stroke="white" stroke-width="2.5" stroke-linecap="round"/>
<path d="M65 46.1001L65 12.6001" stroke="white" stroke-width="2.5" stroke-linecap="round"/>
<path d="M65 63.1001L65 96.6001" stroke="white" stroke-linecap="round"/>
<path d="M65 39.1001L65 72.6001" stroke="white" stroke-width="1.5" stroke-linecap="round"/>
<path d="M73 41.1001L73 16.9001" stroke="white" stroke-width="2.5" stroke-linecap="round"/>
<path d="M73 68.1001L73 92.3001" stroke="white" stroke-linecap="round"/>
<path d="M73 38.1001L73 68.1001" stroke="white" stroke-width="1.5" stroke-linecap="round"/>
<path d="M81 36.1001L81 21.4001" stroke="white" stroke-width="2.5" stroke-linecap="round"/>
<path d="M81 57.1001L81 88.1001" stroke="white" stroke-linecap="round"/>
<path d="M81 33.1001L81 64.1001" stroke="white" stroke-width="1.5" stroke-linecap="round"/>
<path d="M89 32.1001L89 25.9001" stroke="white" stroke-width="2.5" stroke-linecap="round"/>
<path d="M89 55.1001L89 83.1001" stroke="white" stroke-linecap="round"/>
<path d="M89 31.1001L89 59.1001" stroke="white" stroke-width="1.5" stroke-linecap="round"/>
<path d="M53 79.1001L53 32.1001" stroke="white" stroke-width="1.5" stroke-linecap="round"/>
<path d="M53 52.1001L53 5.6001" stroke="white" stroke-width="2.5" stroke-linecap="round"/>
<path d="M53 57.1001L53 103.6" stroke="white" stroke-linecap="round"/>
<path d="M61 48.1001L61 10.1001" stroke="white" stroke-width="2.5" stroke-linecap="round"/>
<path d="M61 61.1001L61 99.1001" stroke="white" stroke-linecap="round"/>
<path d="M61 37.1001L61 75.1001" stroke="white" stroke-width="1.5" stroke-linecap="round"/>
<path d="M57 64.1001L57 102.1" stroke="white" stroke-linecap="round"/>
<path d="M57 40.1001L57 78.1001" stroke="white" stroke-width="1.5" stroke-linecap="round"/>
<path d="M69 43.1001L69 14.6001" stroke="white" stroke-width="2.5" stroke-linecap="round"/>
<path d="M69 66.1001L69 94.6001" stroke="white" stroke-linecap="round"/>
<path d="M69 42.1001L69 70.6001" stroke="white" stroke-width="1.5" stroke-linecap="round"/>
<path d="M77 38.1001L77 19.1001" stroke="white" stroke-width="2.5" stroke-linecap="round"/>
<path d="M77 50.1001L77 90.1001" stroke="white" stroke-linecap="round"/>
<path d="M77 26.1001L77 66.1001" stroke="white" stroke-width="1.5" stroke-linecap="round"/>
<path d="M85 34.1001L85 23.8001" stroke="white" stroke-width="2.5" stroke-linecap="round"/>
<path d="M85 54.1001L85 85.1001" stroke="white" stroke-linecap="round"/>
<path d="M85 30.1001L85 61.1001" stroke="white" stroke-width="1.5" stroke-linecap="round"/>
<path d="M93 30.1001L93 28.1001" stroke="white" stroke-width="2.5" stroke-linecap="round"/>
<path d="M93 54.1001L93 81.1001" stroke="white" stroke-linecap="round"/>
<path d="M93 30.1001L93 57.1001" stroke="white" stroke-width="1.5" stroke-linecap="round"/>
<path d="M57 8.1001L57 50.3001" stroke="white" stroke-width="2.5" stroke-linecap="round"/>
<path d="M65 12.1001L65 45.6001" stroke="white" stroke-width="2.5" stroke-linecap="round"/>
<path d="M73 17.1001L73 41.3001" stroke="white" stroke-width="2.5" stroke-linecap="round"/>
<path d="M81 22.1001L81 36.8001" stroke="white" stroke-width="2.5" stroke-linecap="round"/>
<path d="M89 26.1001L89 32.3001" stroke="white" stroke-width="2.5" stroke-linecap="round"/>
<path d="M53 6.1001L53 52.6001" stroke="white" stroke-width="2.5" stroke-linecap="round"/>
<path d="M61 10.1001L61 48.1001" stroke="white" stroke-width="2.5" stroke-linecap="round"/>
<path d="M69 15.1001L69 43.6001" stroke="white" stroke-width="2.5" stroke-linecap="round"/>
<path d="M77 20.1001L77 39.1001" stroke="white" stroke-width="2.5" stroke-linecap="round"/>
<path d="M85 24.1001L85 34.4001" stroke="white" stroke-width="2.5" stroke-linecap="round"/>
<circle cx="37" cy="41" r="2" fill="#FBD757"/>
<circle cx="61" cy="41" r="2" fill="#FBD757"/>
<circle cx="81" cy="35" r="2" fill="#FBD757"/>
<circle cx="17" cy="35" r="2" fill="#FBD757"/>
<circle cx="37" cy="74.2002" r="2" fill="#FBD757"/>
<circle cx="61" cy="74.2002" r="2" fill="#FBD757"/>
<circle cx="81" cy="79" r="2" fill="#FBD757"/>
<circle cx="17" cy="79" r="2" fill="#FBD757"/>
<circle cx="37" cy="57.6001" r="2" fill="#FBD757"/>
<circle cx="37" cy="21.6001" r="2" fill="#FBD757"/>
<circle cx="61" cy="57.6001" r="2" fill="#FBD757"/>
<circle cx="81" cy="57" r="2" fill="#FBD757"/>
<circle cx="17" cy="57" r="2" fill="#FBD757"/>
<circle cx="61" cy="21.6001" r="2" fill="#FBD757"/>
<circle cx="37" cy="90.8003" r="2" fill="#FBD757"/>
<circle cx="61" cy="90.8003" r="2" fill="#FBD757"/>
</g>
<defs>
<clipPath id="clip0_24_116">
<rect width="260" height="110" fill="white"/>
</clipPath>
</defs>
</svg>
